<svg width="48" height="48" xmlns="http://www.w3.org/2000/svg"><path d="M31.98 22.592s1.372-2.324-.27-4.014c-2.039-2.093-6.989.265-6.989.265-1.89.604-1.389-.274-1.122-1.77 0-1.76-.587-4.74-5.624-2.98-5.03 1.77-9.35 7.97-9.35 7.97-3.005 4.12-2.608 7.307-2.608 7.307.75 7.03 8.02 8.96 13.672 9.417 5.947.479 13.975-2.107 16.41-7.421 2.433-5.323-1.99-7.43-3.397-7.718-1.404-.28-.722-1.056-.722-1.056m-11.887 14.49c-5.904.283-10.677-2.76-10.677-6.81 0-4.054 4.773-7.305 10.677-7.584 5.908-.28 10.691 2.222 10.691 6.268 0 4.049-4.783 7.85-10.69 8.126m-.846-12.078c-5.939.714-5.252 6.43-5.252 6.43s-.06 1.81 1.591 2.733c3.475 1.935 7.053.763 8.861-1.636 1.808-2.4.747-8.237-5.2-7.527m-2.135 8.048c-1.11.134-2.003-.523-2.003-1.477 0-.95.794-1.943 1.903-2.062 1.274-.125 2.103.63 2.103 1.583 0 .949-.899 1.827-2.003 1.956m3.7-3.222c-.375.288-.837.248-1.035-.098-.207-.337-.13-.878.25-1.162.44-.337.897-.24 1.097.098.198.345.055.864-.312 1.162m14.45-8.566a.987.987 0 0 1-.98-.998s.962-4.48-3.397-3.491a.983.983 0 0 1-.97-.997c0-.56.431-1.008.97-1.008 0 0 6.07-1.153 5.343 5.549a.4.4 0 0 1-.013.106.974.974 0 0 1-.954.839M29.975 9.288c.606-.12 2.763-.554 4.861-.05 3.754.9 8.908 4.632 6.582 12.57-.16 1.135-.709 1.226-1.36 1.226-.78 0-1.41-.505-1.41-1.308 0-.695.278-1.402.278-1.402.083-.292.743-2.111-.434-4.831-2.158-3.725-6.505-3.78-7.019-3.567-.517.208-1.28.313-1.28.313-.787 0-1.417-.657-1.417-1.455 0-.67.436-1.237 1.032-1.41 0 0 .013-.022.034-.027.043-.01.087-.054.133-.06" fill="#FFF" fill-rule="evenodd"/></svg>