<svg width="48" height="48" xmlns="http://www.w3.org/2000/svg"><path d="M39.508 36.509C42.229 34.821 44 32.117 44 29.059c0-5.12-4.946-9.271-11.048-9.271s-11.048 4.151-11.048 9.271c0 5.12 4.946 9.271 11.048 9.271 1.302 0 2.547-.198 3.707-.546 1.702 1.335 3.549 2.167 4.816 2.464-.751-.608-1.459-2.408-1.967-3.739m-9.222-6.297c-1.098 0-1.988-.902-1.988-2.015s.89-2.015 1.988-2.015c1.098 0 1.989.902 1.989 2.015s-.891 2.015-1.989 2.015m7.673 0c-1.098 0-1.989-.902-1.989-2.015s.891-2.015 1.989-2.015 1.988.902 1.988 2.015-.89 2.015-1.988 2.015M32.726 17.87c-7.148 0-12.942 5.01-12.942 11.189 0 1.691.436 3.293 1.213 4.73-.503.043-1.013.066-1.529.066-2.13 0-4.159-.374-6.005-1.05-1.249 1.38-3.599 2.83-5.675 3.607.882-.674 1.289-3.124 1.28-6.045C5.955 27.91 4 24.367 4 20.427 4 13.011 10.925 7 19.468 7c7.586 0 13.893 4.742 15.21 10.997a14.908 14.908 0 0 0-1.952-.127m-7.555-3.197c1.098 0 1.989.901 1.989 2.015 0 1.113-.891 2.015-1.989 2.015-1.099 0-1.989-.902-1.989-2.015 0-1.114.89-2.015 1.989-2.015m-10.231 4.03c-1.098 0-1.988-.902-1.988-2.015 0-1.114.89-2.015 1.988-2.015 1.099 0 1.989.901 1.989 2.015 0 1.113-.89 2.015-1.989 2.015" fill="#FFF" fill-rule="evenodd"/></svg>